<?xml version="1.0" standalone="no"?>
<!DOCTYPE svg PUBLIC "-//W3C//DTD SVG 20010904//EN"
 "http://www.w3.org/TR/2001/REC-SVG-20010904/DTD/svg10.dtd">
<svg version="1.0" xmlns="http://www.w3.org/2000/svg"
 width="500.000000pt" height="500.000000pt" viewBox="0 0 500.000000 500.000000"
 preserveAspectRatio="xMidYMid meet">

<g transform="translate(0.000000,500.000000) scale(0.100000,-0.100000)"
fill="#000000" stroke="none">
<path d="M2443 4423 c26 -2 67 -2 90 0 23 2 2 3 -48 3 -49 0 -68 -1 -42 -3z"/>
<path d="M2278 4413 c6 -2 18 -2 25 0 6 3 1 5 -13 5 -14 0 -19 -2 -12 -5z"/>
<path d="M2688 4413 c7 -3 16 -2 19 1 4 3 -2 6 -13 5 -11 0 -14 -3 -6 -6z"/>
<path d="M2218 4403 c7 -3 16 -2 19 1 4 3 -2 6 -13 5 -11 0 -14 -3 -6 -6z"/>
<path d="M3037 4339 c7 -7 15 -10 18 -7 3 3 -2 9 -12 12 -14 6 -15 5 -6 -5z"/>
<path d="M2348 4303 c7 -3 16 -2 19 1 4 3 -2 6 -13 5 -11 0 -14 -3 -6 -6z"/>
<path d="M2628 4303 c7 -3 16 -2 19 1 4 3 -2 6 -13 5 -11 0 -14 -3 -6 -6z"/>
<path d="M2268 4293 c7 -3 16 -2 19 1 4 3 -2 6 -13 5 -11 0 -14 -3 -6 -6z"/>
<path d="M2938 4243 c7 -3 16 -2 19 1 4 3 -2 6 -13 5 -11 0 -14 -3 -6 -6z"/>
<path d="M1890 4190 c-9 -6 -10 -10 -3 -10 6 0 15 5 18 10 8 12 4 12 -15 0z"/>
<path d="M3110 4180 c8 -5 20 -10 25 -10 6 0 3 5 -5 10 -8 5 -19 10 -25 10 -5
0 -3 -5 5 -10z"/>
<path d="M3410 4161 c0 -6 4 -13 10 -16 6 -3 7 1 4 9 -7 18 -14 21 -14 7z"/>
<path d="M1556 4143 c-6 -14 -5 -15 5 -6 7 7 10 15 7 18 -3 3 -9 -2 -12 -12z"/>
<path d="M1786 4142 c-3 -5 1 -9 9 -9 8 0 15 4 15 9 0 4 -4 8 -9 8 -6 0 -12
-4 -15 -8z"/>
<path d="M1483 4093 c0 -9 4 -10 14 -2 7 6 13 12 13 14 0 1 -6 2 -13 2 -8 0
-14 -6 -14 -14z"/>
<path d="M3480 4106 c0 -2 8 -10 18 -17 15 -13 16 -12 3 4 -13 16 -21 21 -21
13z"/>
<path d="M1440 4059 c0 -5 5 -7 10 -4 6 3 10 8 10 11 0 2 -4 4 -10 4 -5 0 -10
-5 -10 -11z"/>
<path d="M3580 4034 c0 -6 17 -26 37 -45 l38 -34 -30 35 c-16 19 -33 39 -37
45 -5 5 -8 5 -8 -1z"/>
<path d="M1360 3985 c-24 -25 -42 -45 -39 -45 3 0 25 20 49 45 24 25 42 45 39
45 -3 0 -25 -20 -49 -45z"/>
<path d="M3436 3985 c4 -8 11 -15 16 -15 6 0 5 6 -2 15 -7 8 -14 15 -16 15 -2
0 -1 -7 2 -15z"/>
<path d="M3486 3945 c4 -8 11 -15 16 -15 6 0 5 6 -2 15 -7 8 -14 15 -16 15 -2
0 -1 -7 2 -15z"/>
<path d="M1464 3918 l-19 -23 23 19 c21 18 27 26 19 26 -2 0 -12 -10 -23 -22z"/>
<path d="M2330 3900 c-102 -21 -203 -41 -225 -44 -22 -3 -157 -30 -299 -59
l-259 -53 -29 -44 c-24 -39 -28 -55 -28 -122 0 -95 9 -120 55 -148 42 -26 41
-45 -3 -45 -37 0 -59 -25 -68 -76 -5 -27 -13 -38 -35 -46 -56 -21 -84 -145
-55 -242 11 -39 14 -73 10 -121 -9 -96 0 -131 52 -194 39 -48 43 -58 34 -77
-9 -16 -19 -20 -41 -17 -51 8 -89 -60 -89 -162 0 -87 14 -113 90 -169 39 -28
73 -51 76 -51 3 0 28 -17 57 -38 29 -22 90 -65 137 -97 47 -32 87 -61 90 -65
3 -3 68 -48 145 -99 77 -52 147 -100 155 -108 8 -8 91 -66 183 -130 l169 -116
41 13 c22 6 63 22 91 34 28 13 92 40 141 60 50 21 126 53 170 71 44 19 116 48
160 65 44 17 98 40 120 50 52 24 253 106 283 114 41 13 28 51 -33 96 -67 49
-70 73 -20 119 19 17 35 36 35 42 0 6 9 18 21 27 12 10 18 23 14 32 -3 8 -48
35 -100 60 -52 25 -93 50 -91 55 1 6 12 14 24 20 11 5 23 17 25 27 3 10 13 18
24 19 10 0 50 11 88 23 89 29 92 47 17 91 -54 30 -54 30 -49 72 5 50 49 113
77 113 10 0 23 6 27 14 4 8 56 33 116 56 59 23 107 45 107 50 0 5 -12 18 -26
29 -24 19 -24 21 -11 48 8 15 18 44 22 63 4 19 15 40 23 46 23 17 7 43 -35 60
-112 44 -113 45 -113 81 0 44 20 82 60 111 48 36 38 60 -40 99 -82 41 -420
203 -567 273 -73 35 -113 59 -113 69 0 14 -1 14 -10 1 -7 -11 -10 -11 -10 -2
0 7 -4 11 -8 8 -12 -7 -143 59 -135 69 5 4 3 5 -4 2 -6 -4 -53 13 -104 38 -55
27 -105 44 -123 44 -17 -1 -114 -19 -216 -39z m250 -3 c0 -6 3 -8 6 -5 3 3 65
-25 139 -62 74 -37 136 -65 139 -62 3 3 6 0 6 -6 0 -6 10 -14 23 -17 12 -4 78
-34 147 -68 69 -33 125 -58 126 -56 0 2 8 -4 18 -14 10 -9 22 -15 27 -12 5 4
9 1 9 -5 0 -6 5 -8 10 -5 6 3 10 1 10 -5 0 -6 4 -9 9 -6 5 4 11 2 13 -4 2 -6
13 -12 26 -15 13 -2 78 -33 146 -69 68 -36 126 -63 130 -59 3 3 6 1 6 -6 0 -7
3 -10 8 -8 4 3 12 -1 19 -8 9 -10 -1 -16 -50 -29 -34 -9 -73 -19 -87 -22 -13
-3 -85 -21 -160 -40 -74 -19 -142 -37 -150 -39 -8 -2 -15 -4 -15 -5 0 -1 -11
-3 -25 -5 -14 -2 -79 -18 -145 -35 -66 -17 -131 -33 -145 -36 -53 -11 -226
-56 -252 -66 -28 -10 -78 -83 -78 -113 0 -9 -3 -14 -7 -12 -5 3 -8 -17 -8 -44
0 -27 4 -49 9 -49 4 0 6 -7 2 -15 -3 -8 -2 -15 3 -15 5 0 11 -11 13 -25 l5
-24 -27 19 c-16 11 -33 20 -39 20 -6 0 -11 4 -11 8 0 4 -31 28 -70 52 -38 25
-70 50 -70 57 0 6 -5 15 -12 19 -7 5 -8 3 -3 -6 5 -8 3 -11 -6 -8 -8 3 -13 10
-12 16 2 6 -4 9 -12 5 -16 -5 -58 24 -51 36 2 3 -6 7 -18 7 -12 1 -35 13 -50
27 -15 14 -43 33 -62 42 -20 9 -32 21 -28 27 4 6 3 8 -3 5 -6 -4 -16 0 -23 8
-7 8 -19 15 -27 15 -16 0 -45 25 -37 32 2 3 -6 13 -18 24 -12 10 -18 13 -14 7
12 -22 -8 -14 -52 18 -23 17 -42 27 -42 23 0 -4 -5 -3 -11 3 -16 16 -1 37 16
23 11 -9 16 -6 25 12 10 22 10 22 -4 4 -14 -17 -16 -17 -22 -3 -3 10 -10 17
-16 17 -5 0 -7 -4 -3 -9 3 -5 1 -12 -4 -15 -13 -8 -72 24 -65 35 3 5 1 8 -4 7
-6 -2 -42 18 -81 45 -39 26 -76 47 -82 47 -6 0 -9 6 -6 13 2 6 -3 17 -12 24
-12 8 -17 31 -18 87 -1 44 2 76 7 76 6 0 9 3 8 8 -1 4 1 17 5 28 6 18 25 25
120 43 61 13 121 25 132 27 11 2 31 6 45 9 14 3 36 7 50 10 14 3 39 8 55 10
17 3 37 8 45 10 8 2 27 6 43 9 15 3 35 7 45 10 9 3 33 7 52 11 19 3 121 23
225 43 211 42 215 43 215 29z m-912 -548 c2 -5 8 -9 13 -9 6 0 15 -5 22 -10 7
-6 23 -19 37 -31 14 -11 21 -18 15 -16 -113 52 -137 59 -95 30 14 -10 27 -16
29 -14 2 1 7 -2 10 -7 7 -12 151 -84 151 -76 0 3 7 -2 16 -10 8 -9 20 -14 25
-11 5 4 9 1 9 -6 0 -7 3 -10 6 -6 3 3 26 -10 51 -29 24 -19 75 -52 113 -74 38
-22 82 -51 98 -65 17 -14 35 -25 41 -25 7 0 14 -7 17 -15 4 -8 12 -15 20 -15
8 0 14 -4 14 -9 0 -5 8 -11 18 -15 24 -8 56 -29 65 -43 4 -7 12 -13 17 -13 15
0 49 -33 44 -42 -3 -4 1 -5 9 -2 7 2 26 -8 42 -23 16 -15 25 -22 21 -15 -7 11
-4 12 13 2 12 -6 19 -15 16 -20 -7 -11 61 -3 86 11 10 5 19 8 19 5 0 -3 21 2
48 10 26 8 74 21 107 30 33 8 67 17 75 19 100 27 222 59 250 65 19 5 51 13 70
19 19 6 42 11 50 10 8 0 -12 -9 -45 -20 -33 -10 -69 -23 -80 -28 -11 -6 -63
-24 -115 -41 -52 -18 -102 -34 -110 -37 -8 -4 -17 -7 -20 -8 -3 -1 -12 -5 -20
-8 -8 -4 -27 -11 -41 -16 -17 -6 -34 -25 -45 -50 -10 -23 -22 -37 -28 -34 -6
4 -5 -1 3 -10 7 -9 10 -17 7 -17 -4 0 -4 -6 1 -12 4 -7 8 -17 9 -23 1 -5 6
-19 10 -30 l7 -20 -23 20 c-14 12 -20 14 -15 5 8 -13 7 -13 -8 -1 -17 13 -15
25 4 27 19 3 20 4 14 15 -5 7 -13 5 -25 -6 -22 -20 -60 -12 -60 13 0 14 -2 14
-9 3 -5 -7 -14 -10 -20 -7 -6 4 -9 12 -5 17 3 5 2 9 -3 8 -26 -4 -42 2 -37 16
3 8 11 13 16 12 6 -1 13 5 15 13 4 13 3 13 -6 0 -6 -8 -11 -10 -11 -5 0 6 -9
-1 -20 -15 -11 -14 -20 -19 -20 -12 0 7 -5 10 -11 6 -7 -4 -10 -1 -7 7 3 8 11
13 17 11 7 -1 10 2 6 8 -4 6 -13 5 -26 -3 -16 -10 -21 -9 -29 3 -5 8 -12 11
-16 8 -10 -10 -46 11 -39 23 4 5 1 8 -7 7 -7 -2 -12 4 -10 12 3 12 1 12 -9 3
-9 -9 -17 -9 -33 0 -12 6 -25 12 -31 12 -5 1 -9 6 -8 13 2 6 -3 9 -10 6 -7 -2
-21 2 -32 10 -16 11 -17 17 -7 29 9 10 10 17 2 22 -6 3 -7 11 -4 17 4 7 2 8
-5 4 -9 -6 -9 -11 -1 -21 7 -9 6 -16 -4 -25 -17 -13 -40 -4 -30 12 4 7 2 8 -4
4 -7 -4 -18 -4 -24 1 -7 4 -22 9 -33 10 -10 2 -23 9 -27 16 -4 6 -8 8 -8 3 0
-5 -7 -3 -15 4 -8 7 -13 15 -11 19 3 4 -4 8 -15 9 -43 4 -49 6 -49 14 0 5 -5
6 -10 3 -5 -3 -10 -2 -10 4 0 10 -38 27 -52 23 -5 -1 -8 3 -8 9 0 5 -4 7 -10
4 -5 -3 -10 -2 -10 4 0 5 -9 13 -20 16 -11 4 -18 10 -15 15 3 4 -4 6 -15 3
-11 -3 -20 -1 -20 5 0 8 -48 27 -58 22 -2 -1 -12 8 -21 19 -10 11 -20 18 -23
15 -9 -9 -58 18 -51 29 3 6 1 7 -5 3 -14 -9 -63 14 -55 27 3 6 1 7 -6 3 -6 -4
-24 0 -39 10 -15 10 -30 17 -34 16 -5 -1 -8 6 -9 16 0 9 -3 12 -5 6 -3 -7 -14
-10 -25 -7 -26 7 -34 48 -23 121 4 29 9 33 32 32 44 -3 52 -1 52 16 0 13 6 15
28 9 15 -3 29 -11 30 -16z m1895 -65 c-19 -30 -19 -124 0 -136 7 -4 8 -8 2 -9
-5 0 -17 -2 -25 -4 -8 -2 -25 -6 -38 -9 -12 -3 -27 -8 -33 -12 -6 -4 -23 -8
-38 -10 -45 -6 -125 -24 -151 -34 -14 -5 -36 -12 -50 -14 -14 -3 -45 -10 -70
-17 -25 -6 -53 -13 -62 -15 -10 -2 -26 -6 -35 -8 -10 -3 -101 -25 -203 -50
-102 -25 -199 -51 -216 -56 -36 -12 -68 -13 -78 -3 -6 6 48 20 148 39 31 5 68
23 51 24 -6 0 -35 -6 -65 -14 -30 -8 -74 -17 -97 -21 -42 -7 -43 -6 -42 22 0
15 5 43 12 62 12 33 16 35 102 57 50 12 162 41 250 64 194 50 398 103 523 134
51 13 95 26 99 30 3 3 12 6 20 6 10 0 10 -6 -4 -26z m-2083 -75 c0 -26 20 -46
67 -66 21 -8 48 -25 59 -37 35 -34 51 -45 57 -39 3 3 12 -4 19 -16 7 -12 18
-21 25 -21 7 0 16 -6 20 -13 4 -8 23 -22 41 -32 17 -11 32 -23 32 -27 0 -4 7
-8 15 -8 9 0 18 -7 21 -15 4 -8 12 -15 20 -15 8 0 14 -4 14 -10 0 -5 7 -10 15
-10 9 0 18 -7 21 -15 4 -8 11 -15 18 -15 6 0 26 -14 45 -30 18 -17 37 -30 40
-30 4 0 16 -9 28 -19 11 -10 34 -26 51 -35 18 -9 32 -21 32 -27 0 -6 5 -7 10
-4 6 3 13 -1 16 -9 3 -9 12 -16 20 -16 8 0 14 -4 14 -10 0 -5 6 -10 14 -10 8
0 16 -7 20 -15 3 -8 11 -15 19 -15 7 0 23 -9 35 -20 12 -12 22 -16 22 -11 0 5
-22 26 -50 46 -27 20 -50 41 -50 46 0 5 -7 9 -15 9 -8 0 -19 9 -25 20 -6 11
-15 20 -20 20 -6 0 -18 7 -27 15 -82 71 -100 85 -110 85 -7 0 -18 9 -25 20 -7
11 -18 20 -25 20 -7 0 -13 5 -13 10 0 6 -11 15 -25 20 -14 5 -25 14 -25 20 0
5 -7 10 -15 10 -8 0 -15 5 -15 10 0 6 -5 10 -12 10 -15 0 -48 30 -48 43 0 6 8
3 18 -5 9 -8 98 -55 197 -103 99 -49 182 -92 185 -95 3 -3 12 -6 20 -8 8 -2
23 -10 32 -19 9 -8 22 -12 29 -7 7 4 10 3 5 -4 -3 -6 4 -14 16 -17 42 -13 138
-58 138 -65 0 -4 18 -13 40 -20 22 -7 40 -17 40 -22 0 -5 4 -7 9 -4 4 3 16 -1
26 -8 17 -12 12 -14 -41 -25 -128 -24 -145 -29 -164 -46 -11 -10 -24 -31 -29
-49 -14 -44 -20 -146 -8 -146 5 0 3 -8 -4 -17 -12 -15 -12 -16 1 -8 8 4 12 5
8 0 -4 -4 -2 -17 4 -29 l11 -21 -24 20 c-13 11 -26 23 -29 26 -3 4 -21 16 -40
27 -19 11 -34 25 -32 32 1 6 -2 9 -8 5 -5 -3 -13 1 -16 9 -3 9 -11 13 -18 9
-6 -3 0 7 14 23 21 25 22 26 3 10 -23 -19 -23 -19 -78 18 -31 20 -53 41 -50
46 3 5 -6 12 -20 16 -13 3 -23 10 -20 14 3 5 -5 12 -17 15 -34 11 -57 35 -51
53 3 13 2 14 -4 4 -12 -17 -46 -4 -39 15 3 8 1 11 -4 8 -11 -7 -58 23 -108 70
-18 16 -46 37 -63 47 -16 9 -29 20 -28 25 2 4 -6 10 -17 12 -20 4 -68 50 -69
66 0 5 -7 10 -15 10 -9 0 -22 6 -30 13 -8 7 -30 22 -48 33 -20 11 -30 24 -26
31 4 6 3 8 -3 5 -10 -7 -29 12 -49 48 -16 29 -11 113 10 168 20 49 36 62 36
26z m455 11 c3 -5 1 -10 -4 -10 -6 0 -11 5 -11 10 0 6 2 10 4 10 3 0 8 -4 11
-10z m637 -150 c-24 -28 -36 -25 -15 4 10 13 21 22 25 20 4 -3 0 -14 -10 -24z
m-22 -50 c-6 -11 -16 -20 -23 -20 -7 0 -6 4 3 10 8 5 11 10 7 10 -12 0 2 20
14 20 6 0 6 -8 -1 -20z m1140 9 c0 -15 -33 -69 -42 -69 -4 0 -8 -7 -8 -15 0
-8 -1 -15 -3 -15 -9 0 -274 -93 -290 -102 -10 -5 -30 -12 -44 -14 -14 -3 -52
-16 -84 -29 -32 -14 -63 -25 -70 -25 -6 0 -25 -7 -42 -15 -18 -8 -59 -23 -92
-34 -33 -11 -87 -30 -120 -41 l-59 -22 -17 21 c-20 24 -14 60 10 68 9 3 34 14
56 23 22 10 56 23 75 28 53 16 182 61 205 72 11 5 70 26 130 46 61 20 116 41
123 47 6 5 12 6 12 2 0 -4 6 -3 13 2 6 5 32 16 57 23 25 7 50 17 55 21 6 4 25
10 42 14 18 3 35 10 37 14 7 11 56 12 56 0z m-1163 -81 c-3 -8 -6 -5 -6 6 -1
11 2 17 5 13 3 -3 4 -12 1 -19z m-1047 -59 c0 -5 6 -9 14 -9 22 0 29 -19 14
-37 -12 -15 -11 -15 7 -4 18 12 27 9 68 -19 26 -17 47 -36 47 -41 0 -6 4 -8 9
-5 5 3 12 -1 15 -9 3 -9 17 -20 31 -25 14 -5 25 -14 25 -20 0 -5 7 -10 15 -10
9 0 18 -7 21 -15 4 -8 11 -15 17 -15 12 0 20 -7 95 -82 114 -113 172 -175 172
-182 0 -13 101 -108 108 -101 4 3 -1 11 -11 16 -9 6 -17 15 -17 22 0 7 -16 25
-35 40 -19 15 -35 34 -35 41 0 7 -12 23 -26 35 -14 12 -24 25 -21 28 8 7 47
-16 47 -27 0 -6 7 -10 15 -10 8 0 15 -4 15 -9 0 -5 8 -12 18 -15 9 -3 34 -22
55 -41 21 -19 41 -35 45 -35 4 0 15 -8 23 -18 15 -17 14 -20 -13 -35 -16 -9
-41 -17 -54 -17 -24 0 -74 -40 -74 -59 0 -5 -5 -22 -11 -38 -8 -22 -12 -24
-19 -13 -7 11 -9 10 -7 -7 0 -12 5 -19 9 -17 13 8 9 -51 -4 -65 -8 -8 -8 -11
-2 -8 17 10 39 -19 23 -29 -8 -4 -9 -3 -5 4 4 7 2 12 -5 12 -12 0 -89 73 -89
84 0 3 -8 15 -17 25 -58 62 -65 72 -59 87 3 9 2 12 -5 9 -11 -7 -40 25 -33 36
2 4 -4 6 -13 5 -10 0 -18 5 -18 12 0 7 -6 17 -14 21 -8 5 -10 14 -6 21 5 8 4
11 -2 7 -10 -6 -72 56 -74 74 -1 5 -2 13 -3 18 0 5 -5 13 -10 18 -6 5 -6 2 -1
-7 4 -8 -11 3 -34 25 -23 22 -49 53 -58 69 -8 17 -25 38 -37 48 -16 13 -17 17
-6 18 12 0 11 3 -3 11 -9 5 -21 8 -26 4 -5 -3 -13 0 -17 6 -4 8 -3 9 4 5 25
-15 10 6 -28 40 -22 20 -37 40 -34 45 3 5 1 9 -4 9 -6 0 -13 7 -16 16 -4 10
-2 13 7 8 9 -5 9 -4 0 7 -7 7 -13 36 -13 65 0 47 2 52 20 47 11 -3 20 -9 20
-14z m1067 -31 c-3 -8 -6 -5 -6 6 -1 11 2 17 5 13 3 -3 4 -12 1 -19z m829
-163 c-4 -16 -13 -25 -27 -25 -26 0 -151 -31 -146 -37 2 -2 27 1 55 7 28 6 64
10 81 8 54 -6 19 -28 -90 -58 -122 -34 -119 -38 7 -10 104 23 104 23 104 10 0
-5 -12 -12 -27 -16 -36 -8 -97 -24 -269 -73 -77 -22 -169 -48 -205 -56 -90
-23 -141 -37 -169 -48 -8 -3 -26 -8 -40 -10 -40 -8 -62 -14 -136 -35 -38 -11
-77 -20 -87 -19 -22 0 -29 28 -25 97 4 64 7 66 138 99 105 27 147 32 184 25
28 -6 29 -7 11 -20 -24 -18 -5 -18 53 -1 23 7 39 17 35 21 -4 5 2 7 14 4 23
-6 97 14 88 24 -9 9 45 20 64 13 10 -3 29 -1 42 5 21 9 19 9 -11 4 -40 -7 -32
7 15 23 17 6 39 15 50 19 11 4 23 8 28 9 4 2 8 3 10 4 5 5 252 67 256 64 2 -1
1 -14 -3 -28z m-586 -25 c0 -5 -5 -10 -11 -10 -5 0 -7 5 -4 10 3 6 8 10 11 10
2 0 4 -4 4 -10z m20 -30 c8 -5 11 -12 8 -16 -4 -3 -14 1 -23 10 -18 17 -9 21
15 6z m-1247 -66 c5 -10 22 -31 37 -45 20 -18 25 -30 19 -40 -5 -8 -9 -9 -9
-4 0 6 -13 16 -30 22 -46 17 -36 -2 13 -25 24 -11 49 -27 56 -36 8 -9 18 -16
24 -16 13 0 57 -40 57 -52 0 -5 11 -19 25 -32 14 -13 25 -27 25 -32 0 -5 8
-16 18 -25 9 -8 35 -37 57 -63 22 -27 52 -62 67 -78 15 -16 24 -36 21 -44 -4
-10 0 -12 13 -7 17 6 17 5 5 -10 -12 -15 -12 -17 3 -11 18 7 48 -24 39 -40 -4
-5 -1 -6 4 -3 10 6 73 -58 73 -74 0 -21 77 -21 159 0 47 12 95 23 106 25 11 2
32 7 47 11 17 4 35 1 52 -11 15 -9 30 -14 33 -10 4 4 -3 9 -15 13 -45 11 -26
23 63 39 17 3 53 11 80 19 28 8 64 17 80 19 17 3 66 15 110 26 94 23 126 25
70 4 -22 -9 -48 -20 -57 -25 -10 -5 -23 -9 -29 -9 -6 0 -27 -7 -47 -16 -78
-34 -115 -48 -124 -46 -5 1 -8 -3 -8 -8 0 -5 -3 -9 -7 -9 -23 4 -41 -3 -67
-26 -25 -21 -30 -22 -43 -10 -8 8 -18 15 -21 15 -10 0 -44 -40 -46 -54 -1 -6
-4 -15 -8 -21 -18 -31 -25 -123 -13 -169 4 -11 3 -16 -2 -11 -4 6 -26 19 -48
30 -22 11 -47 28 -57 38 -10 9 -18 14 -18 11 0 -3 -6 1 -14 8 -7 7 -23 20 -35
28 -21 15 -30 37 -9 24 7 -4 8 -3 4 5 -6 9 -11 9 -24 -1 -12 -10 -16 -10 -19
0 -3 6 -11 12 -19 12 -13 0 -19 13 -15 33 1 5 -3 6 -8 3 -12 -8 -71 23 -78 40
-3 8 -11 14 -18 14 -7 0 -27 14 -45 30 -18 17 -38 30 -45 30 -7 0 -19 8 -26
17 -8 10 -9 14 -2 10 6 -4 14 -3 18 2 3 6 -4 8 -15 6 -30 -6 -52 5 -45 22 3
10 1 13 -9 10 -15 -6 -86 38 -86 53 0 6 -9 10 -19 10 -11 0 -36 16 -57 35 -21
20 -48 36 -60 37 -12 1 -21 5 -18 9 2 4 -14 18 -36 30 -22 13 -40 29 -40 36 0
8 -4 12 -8 9 -18 -11 -122 72 -131 104 -9 34 -1 136 13 159 4 6 23 10 43 9 24
-1 40 4 47 14 12 20 36 17 49 -8z m817 -70 c-18 -35 -19 -36 -14 -9 4 17 11
36 17 43 19 24 17 6 -3 -34z m-390 10 c0 -2 -7 -4 -15 -4 -8 0 -15 4 -15 10 0
5 7 7 15 4 8 -4 15 -8 15 -10z m367 -116 c-3 -7 -5 -2 -5 12 0 14 2 19 5 13 2
-7 2 -19 0 -25z m852 -35 c-5 -14 -7 -38 -4 -52 5 -25 3 -27 -72 -44 -274 -64
-413 -96 -478 -113 -33 -8 -71 -17 -84 -19 -13 -2 -61 -14 -107 -25 -47 -12
-97 -23 -112 -26 -15 -3 -49 -11 -77 -18 -89 -25 -121 -28 -134 -13 -20 24 7
34 169 62 147 25 268 52 180 40 -19 -3 -60 -7 -90 -11 -30 -3 -87 -12 -126
-20 -39 -8 -90 -17 -113 -20 l-43 -6 3 48 c3 50 20 79 42 71 6 -2 26 2 42 9
47 19 112 26 135 14 19 -10 28 -31 13 -29 -24 4 -63 -2 -63 -10 0 -4 19 -5 42
-1 24 5 46 6 50 4 4 -3 27 0 50 7 51 13 58 15 127 24 36 5 49 10 40 16 -9 6
-10 9 -2 9 6 0 14 -4 17 -9 5 -8 105 5 116 16 3 2 -22 2 -55 -1 l-60 -5 60 20
c33 11 71 22 84 25 13 3 32 9 41 14 10 5 75 18 146 29 180 28 209 33 211 35 1
1 16 3 32 4 29 2 30 1 20 -25z m-814 -68 c7 -18 6 -19 -9 -4 -9 8 -19 33 -22
55 l-5 39 14 -35 c8 -19 18 -44 22 -55z m933 22 c2 -4 7 -5 12 -2 4 3 13 -1
19 -9 8 -10 8 -16 -3 -26 -23 -19 -106 25 -106 57 l0 23 38 -18 c20 -9 39 -20
40 -25z m39 -123 c-15 -14 -24 -30 -21 -36 4 -6 3 -8 -3 -5 -6 4 -8 -14 -5
-48 4 -50 3 -55 -20 -64 -32 -12 -112 -48 -175 -78 -28 -13 -57 -26 -65 -27
-7 -2 -26 -8 -43 -16 -16 -7 -41 -17 -55 -23 -41 -16 -94 -39 -114 -49 -10 -5
-26 -11 -35 -13 -10 -2 -39 -13 -67 -25 -27 -12 -60 -27 -74 -32 -14 -6 -42
-19 -62 -30 -21 -11 -38 -16 -38 -13 0 4 -20 -5 -45 -18 -24 -14 -44 -22 -43
-19 1 4 -4 25 -10 47 -10 35 -10 42 6 54 16 13 16 13 0 8 -14 -5 -18 -1 -18
18 0 21 13 38 30 40 21 3 50 18 50 26 0 6 5 7 10 4 6 -3 10 -1 10 5 0 6 4 9 9
5 5 -3 12 -1 15 4 3 4 19 11 35 14 16 4 49 15 73 25 24 11 57 25 73 32 17 8
32 14 35 15 3 1 19 7 35 14 17 6 44 16 60 22 17 6 41 16 55 21 14 6 34 14 45
18 82 32 141 55 205 83 19 8 59 23 88 32 29 10 55 21 58 26 3 5 10 9 17 9 6 0
-1 -12 -16 -26z m-1280 -81 c-3 -10 -5 -2 -5 17 0 19 2 27 5 18 2 -10 2 -26 0
-35z m34 -72 c11 -10 16 -22 11 -25 -5 -3 -17 5 -26 19 -20 30 -13 32 15 6z
m336 -268 c-3 -10 -5 -2 -5 17 0 19 2 27 5 18 2 -10 2 -26 0 -35z m22 -103 c1
-13 0 -13 -9 0 -5 8 -9 24 -9 35 l0 20 9 -20 c5 -11 9 -27 9 -35z"/>
<path d="M1620 3685 c0 -3 19 -17 43 -32 23 -16 48 -34 55 -40 7 -7 20 -13 28
-13 8 0 14 -4 14 -9 0 -5 8 -11 18 -15 9 -3 31 -15 47 -26 17 -11 42 -25 58
-31 15 -6 27 -15 27 -20 0 -5 6 -9 14 -9 8 0 22 -7 30 -16 9 -8 16 -12 16 -9
0 4 14 -5 31 -19 17 -14 37 -26 45 -26 8 0 14 -4 14 -10 0 -5 6 -10 13 -10 8
0 24 -9 37 -20 13 -11 29 -20 37 -20 7 0 13 -4 13 -10 0 -5 6 -10 13 -10 8 0
24 -9 37 -20 13 -11 29 -20 37 -20 7 0 13 -4 13 -9 0 -5 11 -12 25 -15 14 -4
25 -11 25 -17 0 -6 4 -8 8 -5 5 3 19 -4 30 -15 12 -11 22 -16 22 -12 0 4 4 4
8 -2 4 -5 18 -16 31 -24 94 -53 111 -60 111 -51 0 6 -8 14 -17 17 -10 4 -20 9
-23 12 -9 10 -44 31 -62 37 -10 4 -18 10 -18 14 0 4 -11 11 -25 14 -14 4 -25
11 -25 16 0 6 -6 10 -13 10 -8 0 -24 9 -37 20 -12 10 -43 29 -69 41 -25 13
-48 26 -51 29 -3 4 -12 10 -20 13 -8 4 -28 16 -45 27 -16 11 -41 25 -55 32
-14 7 -27 15 -30 19 -3 3 -25 16 -50 29 -25 14 -52 29 -60 36 -8 6 -35 22 -60
35 -25 13 -51 30 -58 37 -7 6 -18 12 -24 12 -6 0 -44 20 -84 45 -41 24 -74 42
-74 40z"/>
<path d="M1580 3501 c0 -6 4 -13 10 -16 6 -3 7 1 4 9 -7 18 -14 21 -14 7z"/>
<path d="M1623 3450 c-1 -11 2 -22 6 -24 4 -3 7 4 6 14 -2 27 -10 33 -12 10z"/>
<path d="M2059 3198 c-6 -21 -5 -38 1 -38 5 0 8 9 7 20 -1 17 -5 26 -8 18z"/>
<path d="M2126 3151 c-4 -5 -2 -12 3 -15 5 -4 12 -2 15 3 4 5 2 12 -3 15 -5 4
-12 2 -15 -3z"/>
<path d="M2165 3080 c-3 -5 -1 -10 4 -10 6 0 11 5 11 10 0 6 -2 10 -4 10 -3 0
-8 -4 -11 -10z"/>
<path d="M2266 3078 c3 -5 10 -6 15 -3 13 9 11 12 -6 12 -8 0 -12 -4 -9 -9z"/>
<path d="M2346 3062 c-3 -5 1 -9 9 -9 8 0 12 4 9 9 -3 4 -7 8 -9 8 -2 0 -6 -4
-9 -8z"/>
<path d="M2296 3007 c3 -10 9 -15 12 -12 3 3 0 11 -7 18 -10 9 -11 8 -5 -6z"/>
<path d="M2406 2963 c-6 -14 -5 -15 5 -6 7 7 10 15 7 18 -3 3 -9 -2 -12 -12z"/>
<path d="M2356 2955 c25 -19 40 -19 20 0 -8 8 -20 15 -27 15 -7 0 -4 -6 7 -15z"/>
<path d="M1869 3063 c-13 -16 -12 -17 4 -4 9 7 17 15 17 17 0 8 -8 3 -21 -13z"/>
<path d="M1950 3046 c0 -2 8 -10 18 -17 15 -13 16 -12 3 4 -13 16 -21 21 -21
13z"/>
<path d="M2145 2920 c-3 -5 -1 -10 4 -10 6 0 11 5 11 10 0 6 -2 10 -4 10 -3 0
-8 -4 -11 -10z"/>
<path d="M2196 2922 c-3 -5 1 -9 9 -9 8 0 12 4 9 9 -3 4 -7 8 -9 8 -2 0 -6 -4
-9 -8z"/>
<path d="M2345 2830 c-3 -5 -1 -10 4 -10 6 0 11 5 11 10 0 6 -2 10 -4 10 -3 0
-8 -4 -11 -10z"/>
<path d="M2420 2801 c0 -5 7 -12 16 -15 14 -5 15 -4 4 9 -14 17 -20 19 -20 6z"/>
<path d="M2629 2738 c-8 -27 -6 -38 5 -29 7 6 17 7 22 3 4 -4 2 1 -5 11 -12
16 -20 21 -22 15z"/>
<path d="M3410 3230 c-47 -11 -128 -28 -180 -40 -238 -52 -473 -111 -484 -120
-4 -5 29 0 75 11 126 28 221 50 249 55 14 3 39 9 55 14 17 5 41 11 55 14 63
11 178 37 205 46 17 5 48 12 69 16 21 3 48 10 60 14 20 8 20 9 1 9 -11 -1 -58
-9 -105 -19z"/>
<path d="M3338 3143 c7 -3 16 -2 19 1 4 3 -2 6 -13 5 -11 0 -14 -3 -6 -6z"/>
<path d="M3223 3127 c-29 -6 -53 -15 -53 -19 0 -11 64 0 105 17 35 16 20 16
-52 2z"/>
<path d="M3116 3103 c-1 -1 -47 -12 -102 -24 -128 -27 -174 -37 -199 -43 -11
-2 -51 -11 -90 -20 -38 -8 -81 -20 -95 -26 -24 -10 -24 -10 5 -4 17 3 55 10
85 15 30 6 69 13 85 16 17 2 80 16 140 30 61 14 130 29 155 34 48 10 78 29 41
26 -12 -1 -23 -3 -25 -4z"/>
<path d="M2795 2980 l-20 -9 20 0 c11 0 27 4 35 9 13 9 13 10 0 9 -8 0 -24 -4
-35 -9z"/>
<path d="M1696 2842 c-3 -5 1 -9 9 -9 8 0 12 4 9 9 -3 4 -7 8 -9 8 -2 0 -6 -4
-9 -8z"/>
<path d="M1860 2715 c-11 -13 -10 -14 6 -8 17 6 18 5 4 -13 -14 -17 -14 -18 2
-6 9 8 14 20 11 28 -6 18 -8 17 -23 -1z"/>
<path d="M1956 2653 c-6 -14 -5 -15 5 -6 7 7 10 15 7 18 -3 3 -9 -2 -12 -12z"/>
<path d="M1970 2596 c0 -2 7 -7 16 -10 8 -3 12 -2 9 4 -6 10 -25 14 -25 6z"/>
<path d="M2096 2541 c-3 -5 2 -15 12 -22 15 -12 16 -12 5 2 -7 9 -10 19 -6 22
3 4 4 7 0 7 -3 0 -8 -4 -11 -9z"/>
<path d="M2140 2511 c0 -6 4 -13 10 -16 6 -3 7 1 4 9 -7 18 -14 21 -14 7z"/>
<path d="M3605 3000 c-13 -6 -15 -9 -5 -9 8 0 22 4 30 9 18 12 2 12 -25 0z"/>
<path d="M3544 2980 c-12 -5 -25 -13 -29 -19 -4 -7 3 -7 22 1 51 22 57 39 7
18z"/>
<path d="M3440 2939 c-30 -11 -70 -24 -88 -30 -19 -6 -32 -12 -30 -15 7 -7
161 45 174 59 10 10 6 9 -56 -14z"/>
<path d="M3558 2933 c7 -3 16 -2 19 1 4 3 -2 6 -13 5 -11 0 -14 -3 -6 -6z"/>
<path d="M3510 2920 c-13 -8 -13 -10 2 -10 9 0 20 5 23 10 8 13 -5 13 -25 0z"/>
<path d="M3380 2874 c-36 -13 -85 -31 -110 -39 -72 -25 -73 -25 -68 -30 5 -5
215 66 244 83 29 17 6 12 -66 -14z"/>
<path d="M3175 2843 c-162 -57 -243 -87 -275 -101 -54 -23 13 -12 78 14 37 14
83 31 102 39 91 34 128 48 158 61 18 8 39 14 47 14 7 0 17 5 20 10 8 13 18 16
-130 -37z"/>
<path d="M3070 2764 c-36 -14 -67 -28 -70 -31 -9 -8 54 9 95 27 22 10 47 20
55 23 13 5 13 5 0 6 -8 0 -44 -12 -80 -25z"/>
<path d="M1533 2815 c0 -8 4 -12 9 -9 5 3 6 10 3 15 -9 13 -12 11 -12 -6z"/>
<path d="M1480 2795 c0 -7 30 -13 34 -7 3 4 -4 9 -15 9 -10 1 -19 0 -19 -2z"/>
<path d="M1555 2729 c-3 -4 2 -6 10 -5 21 3 28 13 10 13 -9 0 -18 -4 -20 -8z"/>
<path d="M1560 2669 c0 -5 5 -7 10 -4 6 3 10 8 10 11 0 2 -4 4 -10 4 -5 0 -10
-5 -10 -11z"/>
<path d="M1616 2663 c-6 -14 -5 -15 5 -6 7 7 10 15 7 18 -3 3 -9 -2 -12 -12z"/>
<path d="M1640 2661 c0 -6 4 -13 10 -16 6 -3 7 1 4 9 -7 18 -14 21 -14 7z"/>
<path d="M1613 2615 c0 -8 4 -12 9 -9 5 3 6 10 3 15 -9 13 -12 11 -12 -6z"/>
<path d="M1636 2595 c-11 -8 -15 -15 -9 -15 6 0 16 7 23 15 16 19 11 19 -14 0z"/>
<path d="M1705 2580 c-3 -6 1 -7 9 -4 18 7 21 14 7 14 -6 0 -13 -4 -16 -10z"/>
<path d="M1690 2556 c0 -2 7 -7 16 -10 8 -3 12 -2 9 4 -6 10 -25 14 -25 6z"/>
<path d="M1741 2516 c-10 -11 -9 -14 1 -12 14 2 23 15 15 22 -2 2 -10 -2 -16
-10z"/>
<path d="M1785 2481 c-3 -5 -2 -12 3 -15 5 -3 9 1 9 9 0 17 -3 19 -12 6z"/>
<path d="M1763 2442 c-9 -6 -7 -11 6 -19 15 -10 19 -9 17 2 -3 20 -10 25 -23
17z"/>
<path d="M1827 2369 c7 -7 15 -10 18 -7 3 3 -2 9 -12 12 -14 6 -15 5 -6 -5z"/>
<path d="M1870 2361 c0 -6 4 -13 10 -16 6 -3 7 1 4 9 -7 18 -14 21 -14 7z"/>
<path d="M1965 2270 c10 -11 20 -20 23 -20 3 0 -3 9 -13 20 -10 11 -20 20 -23
20 -3 0 3 -9 13 -20z"/>
<path d="M1954 2228 c-4 -7 -4 -10 1 -6 4 4 15 2 24 -5 14 -11 14 -10 2 6 -16
20 -18 21 -27 5z"/>
<path d="M1962 2194 c10 -10 20 -16 22 -13 3 3 -5 11 -17 18 -21 13 -21 12 -5
-5z"/>
<path d="M1986 2162 c-3 -5 1 -9 9 -9 8 0 12 4 9 9 -3 4 -7 8 -9 8 -2 0 -6 -4
-9 -8z"/>
<path d="M3118 2553 c7 -3 16 -2 19 1 4 3 -2 6 -13 5 -11 0 -14 -3 -6 -6z"/>
<path d="M3010 2534 c-236 -60 -300 -78 -296 -82 5 -4 377 87 385 94 8 7 -34
1 -89 -12z"/>
<path d="M2685 2520 c-19 -8 -19 -9 3 -9 12 -1 22 4 22 9 0 6 -1 10 -2 9 -2 0
-12 -4 -23 -9z"/>
<path d="M2625 2500 c-8 -13 5 -13 25 0 13 8 13 10 -2 10 -9 0 -20 -4 -23 -10z"/>
<path d="M2545 2479 c-59 -21 -50 -23 19 -5 27 7 45 15 40 18 -5 3 -31 -3 -59
-13z"/>
<path d="M2465 2460 c-19 -8 -19 -9 3 -9 12 -1 22 4 22 9 0 6 -1 10 -2 9 -2 0
-12 -4 -23 -9z"/>
<path d="M1453 2395 c0 -8 4 -12 9 -9 5 3 6 10 3 15 -9 13 -12 11 -12 -6z"/>
<path d="M1520 2336 c0 -2 8 -10 18 -17 15 -13 16 -12 3 4 -13 16 -21 21 -21
13z"/>
<path d="M1622 2335 c4 -4 3 -14 -4 -22 -8 -11 -8 -17 2 -26 10 -9 11 -9 6 1
-4 7 -3 19 4 27 8 10 8 15 -2 21 -7 4 -10 4 -6 -1z"/>
<path d="M1570 2305 c-11 -13 -10 -14 4 -9 9 3 16 10 16 15 0 13 -6 11 -20 -6z"/>
<path d="M1685 2280 c10 -11 20 -20 23 -20 3 0 -3 9 -13 20 -10 11 -20 20 -23
20 -3 0 3 -9 13 -20z"/>
<path d="M1734 2238 l-19 -23 23 19 c21 18 27 26 19 26 -2 0 -12 -10 -23 -22z"/>
<path d="M1703 2211 c0 -11 5 -18 9 -15 4 3 5 11 1 19 -7 21 -12 19 -10 -4z"/>
<path d="M1787 2195 c3 -8 9 -12 14 -9 12 7 11 11 -5 17 -10 4 -13 1 -9 -8z"/>
<path d="M1820 2201 c0 -6 4 -13 10 -16 6 -3 7 1 4 9 -7 18 -14 21 -14 7z"/>
<path d="M1896 2132 c-3 -5 1 -9 9 -9 8 0 12 4 9 9 -3 4 -7 8 -9 8 -2 0 -6 -4
-9 -8z"/>
<path d="M1836 2098 c3 -5 10 -6 15 -3 13 9 11 12 -6 12 -8 0 -12 -4 -9 -9z"/>
<path d="M2176 1892 c-3 -5 1 -9 9 -9 8 0 12 4 9 9 -3 4 -7 8 -9 8 -2 0 -6 -4
-9 -8z"/>
<path d="M2216 1882 c-3 -5 1 -9 9 -9 8 0 12 4 9 9 -3 4 -7 8 -9 8 -2 0 -6 -4
-9 -8z"/>
<path d="M2249 1823 c-13 -16 -12 -17 4 -4 9 7 17 15 17 17 0 8 -8 3 -21 -13z"/>
<path d="M2333 1801 c0 -11 5 -18 9 -15 4 3 5 11 1 19 -7 21 -12 19 -10 -4z"/>
<path d="M3038 2323 c6 -2 18 -2 25 0 6 3 1 5 -13 5 -14 0 -19 -2 -12 -5z"/>
<path d="M2950 2310 c-20 -6 -21 -8 -5 -8 11 0 34 4 50 8 27 7 27 8 5 8 -14 0
-36 -4 -50 -8z"/>
<path d="M3090 2294 c-41 -8 -93 -17 -115 -20 -54 -8 -82 -25 -30 -18 22 2 63
9 90 14 28 6 76 15 108 21 31 6 57 12 57 15 0 6 -29 3 -110 -12z"/>
<path d="M2830 2290 c-20 -6 -21 -8 -5 -8 11 0 34 4 50 8 27 7 27 8 5 8 -14 0
-36 -4 -50 -8z"/>
<path d="M2740 2271 c0 -4 11 -6 25 -3 14 2 25 6 25 8 0 2 -11 4 -25 4 -14 0
-25 -4 -25 -9z"/>
<path d="M2245 2202 c-16 -2 -34 -8 -39 -12 -9 -9 63 -2 73 6 8 7 -4 9 -34 6z"/>
<path d="M2648 2183 c7 -3 16 -2 19 1 4 3 -2 6 -13 5 -11 0 -14 -3 -6 -6z"/>
<path d="M2598 2173 c6 -2 18 -2 25 0 6 3 1 5 -13 5 -14 0 -19 -2 -12 -5z"/>
<path d="M2536 2161 c-4 -5 3 -7 14 -4 23 6 26 13 6 13 -8 0 -17 -4 -20 -9z"/>
<path d="M3218 2123 c7 -3 16 -2 19 1 4 3 -2 6 -13 5 -11 0 -14 -3 -6 -6z"/>
<path d="M3025 2050 c-3 -6 1 -7 9 -4 18 7 21 14 7 14 -6 0 -13 -4 -16 -10z"/>
<path d="M3000 2004 c-17 -9 -20 -14 -9 -14 9 0 22 7 29 15 15 18 13 18 -20
-1z"/>
<path d="M3159 2003 c-13 -16 -12 -17 4 -4 16 13 21 21 13 21 -2 0 -10 -8 -17
-17z"/>
<path d="M2895 1965 c-27 -13 -44 -24 -37 -24 7 -1 20 3 30 8 9 5 33 16 52 25
19 8 28 15 20 15 -8 0 -37 -11 -65 -24z"/>
<path d="M3065 1973 c-11 -3 -24 -9 -29 -14 -6 -5 -16 -9 -23 -9 -7 0 -32 -8
-56 -19 -23 -10 -57 -24 -75 -31 -18 -7 -30 -15 -27 -18 3 -3 16 0 30 6 14 7
35 16 48 21 12 4 33 13 47 19 14 6 46 18 73 28 59 21 65 30 12 17z"/>
<path d="M2820 1929 c0 -5 5 -7 10 -4 6 3 10 8 10 11 0 2 -4 4 -10 4 -5 0 -10
-5 -10 -11z"/>
<path d="M2750 1905 c-14 -8 -20 -14 -14 -15 5 0 19 7 30 15 24 18 16 19 -16
0z"/>
<path d="M2645 1861 c-22 -11 -35 -19 -30 -19 14 -1 93 36 80 37 -5 0 -28 -8
-50 -18z"/>
<path d="M2820 1869 c0 -5 5 -7 10 -4 6 3 10 8 10 11 0 2 -4 4 -10 4 -5 0 -10
-5 -10 -11z"/>
<path d="M2745 1840 c-3 -5 -2 -10 4 -10 5 0 13 5 16 10 3 6 2 10 -4 10 -5 0
-13 -4 -16 -10z"/>
<path d="M2545 1825 c-25 -12 -26 -14 -5 -9 28 7 60 23 45 23 -5 0 -23 -6 -40
-14z"/>
<path d="M1254 3878 l-19 -23 23 19 c21 18 27 26 19 26 -2 0 -12 -10 -23 -22z"/>
<path d="M3735 3870 c10 -11 20 -20 23 -20 3 0 -3 9 -13 20 -10 11 -20 20 -23
20 -3 0 3 -9 13 -20z"/>
<path d="M1314 3768 l-19 -23 23 19 c21 18 27 26 19 26 -2 0 -12 -10 -23 -22z"/>
<path d="M3650 3786 c0 -2 8 -10 18 -17 15 -13 16 -12 3 4 -13 16 -21 21 -21
13z"/>
<path d="M765 3710 c-4 -6 -10 -8 -14 -6 -4 3 -8 -1 -8 -8 0 -11 4 -12 19 -3
10 7 18 15 18 19 0 11 -8 10 -15 -2z"/>
<path d="M3730 3686 c0 -2 8 -10 18 -17 15 -13 16 -12 3 4 -13 16 -21 21 -21
13z"/>
<path d="M731 3654 c0 -11 3 -14 6 -6 3 7 2 16 -1 19 -3 4 -6 -2 -5 -13z"/>
<path d="M3896 3657 c3 -10 9 -15 12 -12 3 3 0 11 -7 18 -10 9 -11 8 -5 -6z"/>
<path d="M1215 3640 c-3 -6 1 -7 9 -4 18 7 21 14 7 14 -6 0 -13 -4 -16 -10z"/>
<path d="M1025 3562 c-10 -7 -18 -32 -10 -32 2 0 9 9 15 20 12 22 11 24 -5 12z"/>
<path d="M1384 3548 c3 -15 26 -23 26 -8 0 6 -4 9 -9 6 -5 -4 -12 -1 -14 4 -3
6 -4 5 -3 -2z"/>
<path d="M3975 3530 c-3 -5 -1 -10 4 -10 6 0 11 5 11 10 0 6 -2 10 -4 10 -3 0
-8 -4 -11 -10z"/>
<path d="M1269 3503 c-13 -16 -12 -17 4 -4 16 13 21 21 13 21 -2 0 -10 -8 -17
-17z"/>
<path d="M1401 3504 c0 -11 3 -14 6 -6 3 7 2 16 -1 19 -3 4 -6 -2 -5 -13z"/>
<path d="M1219 3443 c-13 -16 -12 -17 4 -4 9 7 17 15 17 17 0 8 -8 3 -21 -13z"/>
<path d="M1339 3403 c-13 -16 -12 -17 4 -4 9 7 17 15 17 17 0 8 -8 3 -21 -13z"/>
<path d="M1170 3390 c-13 -11 -19 -20 -13 -20 5 0 18 9 28 20 10 11 16 20 13
20 -3 0 -15 -9 -28 -20z"/>
<path d="M771 3354 c0 -11 3 -14 6 -6 3 7 2 16 -1 19 -3 4 -6 -2 -5 -13z"/>
<path d="M920 3360 c0 -5 5 -10 11 -10 5 0 7 5 4 10 -3 6 -8 10 -11 10 -2 0
-4 -4 -4 -10z"/>
<path d="M1065 3360 c-3 -5 -1 -10 4 -10 6 0 11 5 11 10 0 6 -2 10 -4 10 -3 0
-8 -4 -11 -10z"/>
<path d="M1294 3348 l-19 -23 23 19 c21 18 27 26 19 26 -2 0 -12 -10 -23 -22z"/>
<path d="M1133 3345 c0 -8 4 -12 9 -9 5 3 6 10 3 15 -9 13 -12 11 -12 -6z"/>
<path d="M781 3294 c0 -11 3 -14 6 -6 3 7 2 16 -1 19 -3 4 -6 -2 -5 -13z"/>
<path d="M1246 3291 c-12 -13 -14 -21 -6 -26 6 -4 9 -1 8 7 -2 7 3 12 10 11 6
-2 12 4 12 12 0 19 -3 19 -24 -4z"/>
<path d="M1063 3263 c0 -9 4 -10 14 -2 7 6 13 12 13 14 0 1 -6 2 -13 2 -8 0
-14 -6 -14 -14z"/>
<path d="M1215 3250 c-3 -5 -1 -10 4 -10 6 0 11 5 11 10 0 6 -2 10 -4 10 -3 0
-8 -4 -11 -10z"/>
<path d="M1016 3215 c4 -8 10 -12 15 -9 11 6 2 24 -11 24 -5 0 -7 -7 -4 -15z"/>
<path d="M1139 3163 c-13 -16 -12 -17 4 -4 9 7 17 15 17 17 0 8 -8 3 -21 -13z"/>
<path d="M1100 3115 c-11 -13 -10 -14 4 -9 9 3 16 10 16 15 0 13 -6 11 -20 -6z"/>
<path d="M1049 3053 c-13 -16 -12 -17 4 -4 9 7 17 15 17 17 0 8 -8 3 -21 -13z"/>
<path d="M1010 3005 c-11 -13 -10 -14 4 -9 9 3 16 10 16 15 0 13 -6 11 -20 -6z"/>
<path d="M4022 2980 c0 -14 2 -19 5 -12 2 6 2 18 0 25 -3 6 -5 1 -5 -13z"/>
<path d="M960 2945 c-7 -9 -11 -17 -9 -20 3 -2 10 5 17 15 14 24 10 26 -8 5z"/>
<path d="M4025 2920 c3 -5 8 -10 11 -10 2 0 4 5 4 10 0 6 -5 10 -11 10 -5 0
-7 -4 -4 -10z"/>
<path d="M888 2893 c7 -3 16 -2 19 1 4 3 -2 6 -13 5 -11 0 -14 -3 -6 -6z"/>
<path d="M4020 2600 c-8 -5 -12 -12 -9 -15 4 -3 12 1 19 10 14 17 11 19 -10 5z"/>
<path d="M853 2575 c0 -8 4 -12 9 -9 5 3 6 10 3 15 -9 13 -12 11 -12 -6z"/>
<path d="M930 2586 c0 -2 8 -10 18 -17 15 -13 16 -12 3 4 -13 16 -21 21 -21
13z"/>
<path d="M3979 2543 c-13 -16 -12 -17 4 -4 9 7 17 15 17 17 0 8 -8 3 -21 -13z"/>
<path d="M4161 2534 c0 -11 3 -14 6 -6 3 7 2 16 -1 19 -3 4 -6 -2 -5 -13z"/>
<path d="M3936 2495 c-11 -8 -15 -15 -9 -15 6 0 16 7 23 15 16 19 11 19 -14 0z"/>
<path d="M3896 2445 c-11 -8 -17 -17 -14 -20 2 -3 13 4 23 15 21 23 18 25 -9
5z"/>
<path d="M861 2424 c0 -11 3 -14 6 -6 3 7 2 16 -1 19 -3 4 -6 -2 -5 -13z"/>
<path d="M3850 2390 c-8 -5 -12 -12 -9 -15 4 -3 12 1 19 10 14 17 11 19 -10 5z"/>
<path d="M3970 2345 c-11 -13 -10 -14 4 -9 9 3 16 10 16 15 0 13 -6 11 -20 -6z"/>
<path d="M3809 2333 c-13 -16 -12 -17 4 -4 9 7 17 15 17 17 0 8 -8 3 -21 -13z"/>
<path d="M3935 2300 c-10 -11 -13 -20 -7 -20 7 0 12 5 12 10 0 6 10 15 23 20
14 6 16 9 6 9 -9 1 -24 -8 -34 -19z"/>
<path d="M3769 2283 c-13 -16 -12 -17 4 -4 9 7 17 15 17 17 0 8 -8 3 -21 -13z"/>
<path d="M3894 2248 l-19 -23 23 19 c12 11 22 21 22 23 0 8 -8 2 -26 -19z"/>
<path d="M3930 2240 c0 -5 5 -10 11 -10 5 0 7 5 4 10 -3 6 -8 10 -11 10 -2 0
-4 -4 -4 -10z"/>
<path d="M910 2235 c0 -5 5 -17 10 -25 5 -8 10 -10 10 -5 0 6 -5 17 -10 25 -5
8 -10 11 -10 5z"/>
<path d="M3719 2223 c-13 -16 -12 -17 4 -4 16 13 21 21 13 21 -2 0 -10 -8 -17
-17z"/>
<path d="M4211 2214 c0 -11 3 -14 6 -6 3 7 2 16 -1 19 -3 4 -6 -2 -5 -13z"/>
<path d="M3849 2193 c-13 -17 -13 -17 6 -3 11 8 22 16 24 17 2 2 0 3 -6 3 -6
0 -17 -8 -24 -17z"/>
<path d="M4221 2154 c0 -11 3 -14 6 -6 3 7 2 16 -1 19 -3 4 -6 -2 -5 -13z"/>
<path d="M3812 2148 c-7 -7 -12 -16 -12 -21 0 -5 7 -1 16 8 9 9 14 18 12 20
-2 3 -10 -1 -16 -7z"/>
<path d="M3892 2124 c-7 -8 -8 -14 -3 -14 10 0 25 19 20 25 -2 1 -10 -3 -17
-11z"/>
<path d="M4112 2100 c0 -14 2 -19 5 -12 2 6 2 18 0 25 -3 6 -5 1 -5 -13z"/>
<path d="M3759 2083 c-13 -17 -13 -17 6 -3 11 8 22 16 24 17 2 2 0 3 -6 3 -6
0 -17 -8 -24 -17z"/>
<path d="M4231 2084 c0 -11 3 -14 6 -6 3 7 2 16 -1 19 -3 4 -6 -2 -5 -13z"/>
<path d="M970 2081 c0 -6 4 -13 10 -16 6 -3 7 1 4 9 -7 18 -14 21 -14 7z"/>
<path d="M3709 2023 c-13 -16 -12 -17 4 -4 16 13 21 21 13 21 -2 0 -10 -8 -17
-17z"/>
<path d="M3975 2000 c3 -5 8 -10 11 -10 2 0 4 5 4 10 0 6 -5 10 -11 10 -5 0
-7 -4 -4 -10z"/>
<path d="M4131 1974 c0 -11 3 -14 6 -6 3 7 2 16 -1 19 -3 4 -6 -2 -5 -13z"/>
<path d="M3945 1960 c-3 -6 1 -7 9 -4 18 7 21 14 7 14 -6 0 -13 -4 -16 -10z"/>
<path d="M1175 1950 c3 -5 8 -10 11 -10 2 0 4 5 4 10 0 6 -5 10 -11 10 -5 0
-7 -4 -4 -10z"/>
<path d="M1050 1906 c0 -2 7 -7 16 -10 8 -3 12 -2 9 4 -6 10 -25 14 -25 6z"/>
<path d="M3749 1873 c-13 -16 -12 -17 4 -4 16 13 21 21 13 21 -2 0 -10 -8 -17
-17z"/>
<path d="M3719 1833 c-13 -16 -12 -17 4 -4 16 13 21 21 13 21 -2 0 -10 -8 -17
-17z"/>
<path d="M4210 1840 c-23 -7 -23 -8 -3 -9 12 -1 25 4 28 9 3 6 5 10 3 9 -2 -1
-14 -5 -28 -9z"/>
<path d="M3690 1800 c-8 -5 -12 -12 -9 -15 4 -3 12 1 19 10 14 17 11 19 -10 5z"/>
<path d="M1140 1786 c0 -2 8 -10 18 -17 15 -13 16 -12 3 4 -13 16 -21 21 -21
13z"/>
<path d="M1290 1787 c0 -2 15 -16 33 -33 l32 -29 -29 33 c-28 30 -36 37 -36
29z"/>
<path d="M3809 1753 c-13 -16 -12 -17 4 -4 16 13 21 21 13 21 -2 0 -10 -8 -17
-17z"/>
<path d="M1180 1736 c0 -2 8 -10 18 -17 15 -13 16 -12 3 4 -13 16 -21 21 -21
13z"/>
<path d="M3578 1674 c-38 -37 -68 -69 -68 -72 0 -4 32 25 70 63 64 64 75 75
68 75 -2 0 -33 -30 -70 -66z"/>
<path d="M3759 1693 c-13 -16 -12 -17 4 -4 16 13 21 21 13 21 -2 0 -10 -8 -17
-17z"/>
<path d="M1245 1660 c10 -11 20 -20 23 -20 3 0 -3 9 -13 20 -10 11 -20 20 -23
20 -3 0 3 -9 13 -20z"/>
<path d="M1470 1605 c13 -14 26 -25 28 -25 3 0 -5 11 -18 25 -13 14 -26 25
-28 25 -3 0 5 -11 18 -25z"/>
<path d="M3675 1600 c-16 -16 -27 -31 -24 -33 2 -2 17 11 32 30 36 41 31 43
-8 3z"/>
<path d="M3469 1573 c-13 -16 -12 -17 4 -4 9 7 17 15 17 17 0 8 -8 3 -21 -13z"/>
<path d="M1535 1550 c3 -5 8 -10 11 -10 2 0 4 5 4 10 0 6 -5 10 -11 10 -5 0
-7 -4 -4 -10z"/>
<path d="M1385 1520 c10 -11 20 -20 23 -20 3 0 -3 9 -13 20 -10 11 -20 20 -23
20 -3 0 3 -9 13 -20z"/>
<path d="M1570 1531 c0 -6 4 -13 10 -16 6 -3 7 1 4 9 -7 18 -14 21 -14 7z"/>
<path d="M3574 1508 l-19 -23 23 19 c12 11 22 21 22 23 0 8 -8 2 -26 -19z"/>
<path d="M1445 1470 c10 -11 20 -20 23 -20 3 0 -3 9 -13 20 -10 11 -20 20 -23
20 -3 0 3 -9 13 -20z"/>
<path d="M1650 1476 c0 -2 7 -9 15 -16 9 -7 15 -8 15 -2 0 5 -7 12 -15 16 -8
3 -15 4 -15 2z"/>
<path d="M3296 1453 c-6 -14 -5 -15 5 -6 7 7 10 15 7 18 -3 3 -9 -2 -12 -12z"/>
<path d="M3510 1455 c-7 -9 -8 -15 -2 -15 5 0 12 7 16 15 3 8 4 15 2 15 -2 0
-9 -7 -16 -15z"/>
<path d="M1490 1430 c0 -5 5 -10 11 -10 5 0 7 5 4 10 -3 6 -8 10 -11 10 -2 0
-4 -4 -4 -10z"/>
<path d="M3465 1420 c-3 -5 -1 -10 4 -10 6 0 11 5 11 10 0 6 -2 10 -4 10 -3 0
-8 -4 -11 -10z"/>
<path d="M1550 1396 c0 -2 8 -10 18 -17 15 -13 16 -12 3 4 -13 16 -21 21 -21
13z"/>
<path d="M1906 1341 c-3 -5 1 -11 9 -14 9 -4 12 -1 8 9 -6 16 -10 17 -17 5z"/>
<path d="M3060 1335 c-11 -13 -10 -14 4 -9 9 3 16 10 16 15 0 13 -6 11 -20 -6z"/>
<path d="M3345 1340 c-3 -5 -1 -10 4 -10 6 0 11 5 11 10 0 6 -2 10 -4 10 -3 0
-8 -4 -11 -10z"/>
<path d="M2985 1310 c-3 -5 -1 -10 4 -10 6 0 11 5 11 10 0 6 -2 10 -4 10 -3 0
-8 -4 -11 -10z"/>
<path d="M2880 1291 c0 -10 19 -25 25 -20 1 2 -3 10 -11 17 -8 7 -14 8 -14 3z"/>
<path d="M2858 1263 c7 -3 16 -2 19 1 4 3 -2 6 -13 5 -11 0 -14 -3 -6 -6z"/>
<path d="M2328 1223 c7 -3 16 -2 19 1 4 3 -2 6 -13 5 -11 0 -14 -3 -6 -6z"/>
<path d="M2608 1223 c6 -2 18 -2 25 0 6 3 1 5 -13 5 -14 0 -19 -2 -12 -5z"/>
<path d="M3031 1184 c0 -11 3 -14 6 -6 3 7 2 16 -1 19 -3 4 -6 -2 -5 -13z"/>
<path d="M2808 1133 c7 -3 16 -2 19 1 4 3 -2 6 -13 5 -11 0 -14 -3 -6 -6z"/>
<path d="M2240 1110 c0 -5 4 -10 9 -10 6 0 13 5 16 10 3 6 -1 10 -9 10 -9 0
-16 -4 -16 -10z"/>
<path d="M2688 1113 c7 -3 16 -2 19 1 4 3 -2 6 -13 5 -11 0 -14 -3 -6 -6z"/>
<path d="M2423 1103 c37 -2 96 -2 130 0 34 2 4 3 -68 3 -71 0 -99 -1 -62 -3z"/>
<path d="M1830 983 c0 -5 10 -18 23 -29 l22 -19 -20 25 c-11 14 -21 27 -22 29
-2 2 -3 0 -3 -6z"/>
<path d="M2928 844 c3 -133 9 -163 28 -132 4 7 3 8 -4 4 -9 -5 -12 28 -12 128
0 74 -3 137 -7 139 -5 3 -7 -60 -5 -139z"/>
<path d="M3626 981 c-3 -4 4 -17 17 -27 22 -19 22 -19 4 2 -9 11 -14 24 -10
27 3 4 4 7 0 7 -3 0 -8 -4 -11 -9z"/>
<path d="M1634 958 l-19 -23 23 19 c21 18 27 26 19 26 -2 0 -12 -10 -23 -22z"/>
<path d="M2614 958 l-19 -23 23 19 c21 18 27 26 19 26 -2 0 -12 -10 -23 -22z"/>
<path d="M3434 820 c0 -91 2 -128 3 -82 2 45 2 119 0 165 -1 45 -3 8 -3 -83z"/>
<path d="M2170 832 l5 -117 3 109 c1 60 -1 113 -5 117 -4 5 -6 -45 -3 -109z"/>
<path d="M1480 929 c0 -5 5 -7 10 -4 6 3 10 8 10 11 0 2 -4 4 -10 4 -5 0 -10
-5 -10 -11z"/>
<path d="M2419 913 l-24 -28 28 24 c25 23 32 31 24 31 -2 0 -14 -12 -28 -27z"/>
<path d="M2794 923 c16 -20 36 -23 36 -6 0 4 -3 3 -7 0 -3 -4 -16 1 -27 10
-21 18 -21 18 -2 -4z"/>
<path d="M3480 930 c0 -5 5 -10 11 -10 5 0 7 5 4 10 -3 6 -8 10 -11 10 -2 0
-4 -4 -4 -10z"/>
<path d="M2356 914 c-12 -12 -16 -12 -17 -2 0 7 -5 2 -10 -11 -14 -35 -6 -35
26 -1 29 30 30 43 1 14z"/>
<path d="M1822 823 c-2 -86 -5 -103 -18 -103 -8 0 -12 -5 -8 -11 4 -8 11 -7
21 3 10 11 13 38 10 114 l-3 99 -2 -102z"/>
<path d="M3607 900 c-3 -11 -1 -20 4 -20 5 0 9 9 9 20 0 11 -2 20 -4 20 -2 0
-6 -9 -9 -20z"/>
<path d="M2360 841 c0 -6 4 -13 10 -16 6 -3 7 1 4 9 -7 18 -14 21 -14 7z"/>
<path d="M3653 837 c0 -8 6 -14 14 -14 7 0 12 5 10 11 -5 15 -24 18 -24 3z"/>
<path d="M1540 836 c0 -2 8 -10 18 -17 15 -13 16 -12 3 4 -13 16 -21 21 -21
13z"/>
<path d="M3606 802 c-3 -5 1 -9 9 -9 8 0 12 4 9 9 -3 4 -7 8 -9 8 -2 0 -6 -4
-9 -8z"/>
<path d="M1568 744 c-1 -31 0 -58 3 -60 3 -2 7 24 8 56 3 76 -6 79 -11 4z"/>
<path d="M2800 725 c-7 -8 -17 -12 -23 -8 -6 4 -7 1 -3 -6 6 -9 13 -8 27 5 10
9 19 19 19 21 0 7 -8 2 -20 -12z"/>
<path d="M3316 727 c3 -10 9 -15 12 -12 3 3 0 11 -7 18 -10 9 -11 8 -5 -6z"/>
<path d="M1975 721 c-3 -5 -2 -12 3 -15 5 -3 9 1 9 9 0 17 -3 19 -12 6z"/>
<path d="M2837 710 c3 -11 7 -20 9 -20 2 0 4 9 4 20 0 11 -4 20 -9 20 -5 0 -7
-9 -4 -20z"/>
<path d="M3610 710 c-9 -6 -10 -10 -3 -10 6 0 15 5 18 10 8 12 4 12 -15 0z"/>
<path d="M2615 680 c10 -11 20 -20 23 -20 3 0 -3 9 -13 20 -10 11 -20 20 -23
20 -3 0 3 -9 13 -20z"/>
<path d="M3665 690 c-3 -5 -1 -10 4 -10 6 0 11 5 11 10 0 6 -2 10 -4 10 -3 0
-8 -4 -11 -10z"/>
</g>
</svg>
